<?xml version="1.0" standalone="no"?>
<!DOCTYPE svg PUBLIC "-//W3C//DTD SVG 20010904//EN"
 "http://www.w3.org/TR/2001/REC-SVG-20010904/DTD/svg10.dtd">
<svg version="1.0" xmlns="http://www.w3.org/2000/svg"
 width="1012.000000pt" height="1016.000000pt" viewBox="0 0 1012.000000 1016.000000"
 preserveAspectRatio="xMidYMid meet">

<g transform="translate(0.000000,1016.000000) scale(0.100000,-0.100000)"
fill="#000000" stroke="none">
<path d="M4452 9809 l-604 -349 -663 0 -663 0 -24 -42 c-14 -24 -51 -88 -83
-143 -32 -55 -69 -120 -83 -145 -60 -107 -446 -777 -458 -794 -7 -11 -39 -34
-71 -51 -32 -18 -157 -90 -278 -160 -121 -70 -254 -146 -295 -170 -41 -23
-136 -77 -210 -120 -74 -43 -188 -107 -252 -144 l-118 -66 0 -703 0 -703 -32
-57 c-17 -31 -38 -68 -46 -80 -19 -29 -33 -53 -100 -173 -29 -52 -61 -107 -71
-124 -10 -16 -43 -73 -73 -125 -30 -52 -90 -156 -133 -230 -169 -293 -195
-340 -195 -351 0 -11 100 -187 351 -619 39 -69 97 -168 127 -220 30 -52 62
-108 72 -125 10 -16 36 -62 59 -102 l41 -72 0 -703 1 -703 608 -350 c527 -303
611 -354 628 -385 11 -19 43 -75 72 -125 53 -90 62 -105 141 -245 23 -41 71
-122 105 -180 35 -58 71 -121 82 -140 18 -35 50 -89 170 -293 34 -60 63 -112
63 -118 0 -5 256 -9 668 -9 l667 0 140 -81 c77 -45 165 -95 195 -112 30 -17
79 -45 108 -64 29 -18 54 -33 57 -33 2 0 98 -55 212 -121 114 -67 224 -131
243 -142 19 -11 71 -40 115 -65 44 -24 89 -51 100 -58 11 -8 26 -14 33 -14 8
0 62 28 121 61 89 52 489 282 586 339 17 9 137 78 267 153 l237 137 655 0 655
0 19 28 c10 15 61 99 111 187 51 88 96 162 99 165 4 3 8 10 9 16 2 13 132 237
142 244 3 3 7 10 8 16 3 17 134 238 145 245 5 3 9 9 9 13 -2 17 0 24 17 42 10
10 18 23 19 27 1 16 84 155 101 169 22 19 211 128 226 131 6 1 13 5 16 8 7 10
231 140 244 142 6 1 13 5 16 9 3 4 161 97 350 206 l345 199 3 701 2 701 120
208 c67 114 124 210 128 213 4 3 8 10 9 16 1 6 92 166 202 357 l201 346 -330
572 -330 572 0 698 0 698 -30 18 c-16 9 -30 20 -30 23 0 4 -6 7 -12 7 -17 0
-430 240 -439 254 -3 6 -10 10 -15 9 -5 0 -160 86 -345 192 l-337 193 -329
570 -330 570 -666 5 c-572 4 -669 7 -685 20 -10 8 -23 16 -29 17 -13 3 -236
132 -243 141 -3 4 -9 8 -15 9 -5 1 -209 117 -453 257 -244 141 -444 256 -445
255 -1 0 -273 -158 -605 -350z m2135 -1031 c841 -485 1733 -1000 1983 -1144
l455 -263 3 -2289 2 -2290 -987 -570 c-2727 -1573 -2974 -1714 -2991 -1710
-13 4 -3560 2047 -3897 2245 l-50 29 -3 2292 -2 2292 22 14 c13 8 455 264 983
569 528 305 1408 813 1955 1130 547 317 996 576 997 576 1 1 690 -396 1530
-881z m-3437 285 c0 -9 -570 -336 -575 -331 -2 2 40 79 93 171 l96 167 193 0
c106 0 193 -3 193 -7z m4308 -165 c55 -95 99 -174 97 -176 -4 -5 -585 333
-585 341 0 4 87 7 194 7 l194 0 100 -172z m-6800 -3987 l-3 -169 -97 169 -98
169 98 169 97 169 3 -169 c1 -93 1 -245 0 -338z m8916 322 l88 -153 -88 -152
c-48 -84 -94 -162 -101 -173 -11 -16 -13 37 -13 325 0 288 2 341 13 325 7 -11
53 -89 101 -172z m-2038 -3835 c-15 -24 -59 -100 -99 -170 l-72 -128 -200 0
-200 0 145 84 c80 46 210 122 290 169 80 47 149 86 153 86 5 1 -3 -18 -17 -41z
m-4661 -137 l280 -161 -199 2 -200 3 -61 105 c-116 200 -129 224 -114 218 8
-3 140 -78 294 -167z"/>
<path d="M4621 8615 l-423 -245 -523 0 -522 0 -259 -450 -259 -450 -427 -246
-428 -247 0 -493 0 -492 -260 -451 c-143 -247 -260 -455 -260 -461 0 -6 117
-214 260 -461 l260 -451 0 -492 0 -493 427 -246 426 -246 262 -453 261 -453
535 -5 534 -5 418 -243 417 -242 424 245 425 245 524 0 525 0 264 456 264 457
427 246 427 246 0 494 0 493 260 450 c143 248 260 454 260 458 0 4 -117 210
-260 458 l-260 450 0 493 0 494 -427 246 -428 247 -260 451 -260 451 -521 0
-522 0 -418 242 c-231 133 -428 243 -439 245 -12 2 -184 -92 -444 -242z m564
-161 c63 -36 117 -70 120 -75 4 -5 -94 -9 -244 -9 -138 0 -251 3 -251 8 1 9
230 141 248 141 7 1 64 -29 127 -65z m2449 -1889 l857 -1485 -857 -1485 -858
-1485 -1715 0 -1716 0 -172 298 c-94 163 -480 831 -857 1484 l-685 1188 857
1485 857 1485 1716 0 1715 0 858 -1485z m-5318 358 c-18 -36 -227 -397 -232
-402 -2 -2 -4 61 -4 140 l0 144 123 72 c67 39 123 72 125 72 1 1 -4 -11 -12
-26z m5644 -70 l85 -49 3 -149 c2 -129 1 -148 -11 -135 -15 16 -247 415 -247
425 0 3 19 -5 43 -19 23 -13 80 -46 127 -73z m81 -3496 c-13 -13 -245 -145
-249 -142 -3 3 201 360 237 415 15 24 16 19 19 -119 1 -80 -2 -149 -7 -154z
m-5846 93 c59 -102 113 -197 121 -212 13 -24 1 -20 -111 45 l-125 72 0 144 c0
79 2 142 4 140 2 -2 52 -87 111 -189z m3104 -1674 c-11 -11 -231 -136 -239
-136 -8 0 -228 125 -239 136 -2 2 105 4 239 4 134 0 241 -2 239 -4z"/>
<path d="M2845 5686 c-252 -49 -424 -208 -495 -456 -33 -115 -39 -333 -11
-465 55 -270 220 -442 471 -491 138 -27 384 -10 503 35 27 10 27 11 27 109 l0
98 -92 -24 c-116 -30 -301 -40 -379 -22 -155 37 -264 152 -304 322 -19 83 -19
283 0 367 33 140 135 266 252 312 49 19 77 23 178 23 121 0 155 -7 305 -67 11
-5 25 16 55 80 22 47 41 89 43 93 5 12 -82 49 -168 71 -99 26 -290 33 -385 15z"/>
<path d="M5225 5686 c-260 -51 -423 -218 -480 -491 -21 -103 -22 -323 -1 -421
72 -336 290 -514 632 -514 310 0 535 173 616 475 31 116 31 374 0 490 -64 235
-211 393 -422 451 -78 21 -260 27 -345 10z m336 -218 c162 -75 232 -222 232
-488 0 -210 -40 -337 -135 -426 -82 -77 -121 -89 -278 -89 -128 0 -138 2 -197
29 -146 67 -218 205 -230 441 -12 250 56 431 194 512 75 44 119 53 243 50 100
-2 122 -6 171 -29z"/>
<path d="M7271 5689 c-283 -43 -473 -227 -533 -516 -26 -126 -21 -336 11 -456
59 -223 208 -378 416 -432 137 -36 368 -28 512 16 l63 20 0 96 c0 94 0 95 -22
90 -298 -71 -465 -65 -590 21 -129 89 -196 267 -184 487 13 227 95 373 253
448 65 31 73 32 193 32 126 0 202 -16 292 -62 l28 -13 46 91 c51 103 53 96
-36 130 -121 46 -322 68 -449 48z"/>
<path d="M3570 4981 l0 -701 303 0 c271 0 312 2 382 20 92 23 151 56 208 113
129 133 137 396 15 514 -18 18 -57 45 -86 61 l-54 29 34 21 c50 32 95 82 120
137 19 42 23 66 22 150 0 69 -5 111 -16 135 -32 68 -74 115 -135 148 -108 57
-156 64 -490 69 l-303 5 0 -701z m634 469 c28 -14 58 -36 68 -50 42 -58 35
-170 -14 -225 -46 -53 -101 -65 -300 -65 l-168 0 0 186 0 186 183 -4 c171 -3
185 -5 231 -28z m16 -566 c101 -48 141 -142 109 -259 -17 -61 -47 -95 -108
-124 -53 -24 -67 -26 -243 -29 l-188 -4 0 222 0 222 193 -4 c170 -3 197 -6
237 -24z"/>
<path d="M6260 4980 l0 -700 105 0 105 0 0 700 0 700 -105 0 -105 0 0 -700z"/>
</g>
</svg>
